<svg id="Layer_1" data-name="Layer 1" xmlns="http://www.w3.org/2000/svg" viewBox="0 0 600 300"><defs><style>.cls-1{fill:#eff5ff;}</style></defs><title>Artboard 2</title><path class="cls-1" d="M95.76,86.5H54.94v127H95.76a40.82,40.82,0,0,0,40.82-40.81V127.32A40.83,40.83,0,0,0,95.76,86.5Zm22.67,86.18a22.7,22.7,0,0,1-22.67,22.67H73.08V104.64H95.76a22.7,22.7,0,0,1,22.67,22.68Z"/><path class="cls-1" d="M168.72,153.11v-7.65a4.53,4.53,0,0,0-4.53-4.53h-9.07a4.53,4.53,0,0,0-4.54,4.53v68h18.14V181.75a13.62,13.62,0,0,1,13.61-13.61h31.75V150H182.33A31.54,31.54,0,0,0,168.72,153.11Z"/><path class="cls-1" d="M186.86,190.82V213.5h27.22V186.28H191.4A4.54,4.54,0,0,0,186.86,190.82Z"/><path class="cls-1" d="M392.31,140.93H345.53a12.89,12.89,0,0,0-12.89,12.89V200.6a12.89,12.89,0,0,0,12.89,12.89h46.78a12.9,12.9,0,0,0,12.9-12.89V153.82A12.9,12.9,0,0,0,392.31,140.93Zm-5.25,54.42H350.78V159.07h36.28Z"/><rect class="cls-1" x="489.76" y="133.45" width="18.14" height="80.04"/><path class="cls-1" d="M503.37,86.5H494.3A4.54,4.54,0,0,0,489.76,91v24.27H507.9V91A4.53,4.53,0,0,0,503.37,86.5Z"/><rect class="cls-1" x="232.21" y="186.28" width="18.14" height="27.21"/><path class="cls-1" d="M318.39,86.5h-9.07c-2.51,0-7.31,10.39-7.31,10.39l-24.44,51-24.45-51s-4.8-10.39-7.3-10.39h-9.07A4.54,4.54,0,0,0,232.21,91l0,4.78c0,.22,0,.44,0,.66v71.66h18.15V134l17.07,34.14h20.28L304.78,134v79.49h18.14V96.16c0-.18,0-.36,0-.54l0-4.58A4.53,4.53,0,0,0,318.39,86.5Z"/><path class="cls-1" d="M454.14,133.45H431.46V91a4.53,4.53,0,0,0-4.53-4.54h-9.07A4.54,4.54,0,0,0,413.32,91V213.49h40.82a22.67,22.67,0,0,0,22.67-22.67V156.13A22.68,22.68,0,0,0,454.14,133.45Zm4.53,52.87a9,9,0,0,1-9,9H431.46V151.59h18.18a9,9,0,0,1,9,9Z"/><path class="cls-1" d="M540.53,86.5h-9.07A4.54,4.54,0,0,0,526.92,91V213.49h18.14V91A4.53,4.53,0,0,0,540.53,86.5Z"/></svg>